<svg width="200" height="200" viewBox="0 0 200 200" xmlns="http://www.w3.org/2000/svg">
  <!-- Define gradients -->
  <defs>
    <linearGradient id="sunGradient" x1="0%" y1="0%" x2="100%" y2="100%">
      <stop offset="0%" style="stop-color:#FFD700;stop-opacity:1" />
      <stop offset="100%" style="stop-color:#FFA500;stop-opacity:1" />
    </linearGradient>
    <linearGradient id="cloudGradient" x1="0%" y1="0%" x2="0%" y2="100%">
      <stop offset="0%" style="stop-color:#E8F4F8;stop-opacity:1" />
      <stop offset="100%" style="stop-color:#B0D4E3;stop-opacity:1" />
    </linearGradient>
  </defs>
  
  <!-- Sun rays -->
  <g id="sun-rays">
    <line x1="100" y1="10" x2="100" y2="30" stroke="#FFD700" stroke-width="4" stroke-linecap="round"/>
    <line x1="100" y1="170" x2="100" y2="190" stroke="#FFD700" stroke-width="4" stroke-linecap="round"/>
    <line x1="10" y1="100" x2="30" y2="100" stroke="#FFD700" stroke-width="4" stroke-linecap="round"/>
    <line x1="170" y1="100" x2="190" y2="100" stroke="#FFD700" stroke-width="4" stroke-linecap="round"/>
    <line x1="25" y1="25" x2="40" y2="40" stroke="#FFD700" stroke-width="4" stroke-linecap="round"/>
    <line x1="160" y1="160" x2="175" y2="175" stroke="#FFD700" stroke-width="4" stroke-linecap="round"/>
    <line x1="175" y1="25" x2="160" y2="40" stroke="#FFD700" stroke-width="4" stroke-linecap="round"/>
    <line x1="40" y1="160" x2="25" y2="175" stroke="#FFD700" stroke-width="4" stroke-linecap="round"/>
  </g>
  
  <!-- Sun circle -->
  <circle cx="80" cy="70" r="35" fill="url(#sunGradient)" filter="drop-shadow(0 2px 4px rgba(0,0,0,0.1))"/>
  
  <!-- Cloud -->
  <path d="M 60 110 Q 45 110 40 120 Q 30 120 28 130 Q 25 140 35 150 L 160 150 Q 175 150 175 140 Q 175 130 165 125 Q 160 110 145 110 Q 135 100 120 100 Q 105 100 95 110" 
        fill="url(#cloudGradient)" stroke="#4A90A4" stroke-width="1.5" filter="drop-shadow(0 3px 8px rgba(0,0,0,0.15))"/>
  
  <!-- Cloud shine/highlight -->
  <ellipse cx="90" cy="115" rx="35" ry="15" fill="white" opacity="0.4"/>
</svg>